<svg xmlns="http://www.w3.org/2000/svg" xmlns:xlink="http://www.w3.org/1999/xlink" width="1124" height="596" viewBox="0 0 1124 596">
  <defs>
    <clipPath id="clip-path">
      <rect id="contact_section" data-name="contact section" width="1124" height="596" transform="translate(138 2551)" fill="#f53c4b"/>
    </clipPath>
  </defs>
  <g id="Mask_Group_1" data-name="Mask Group 1" transform="translate(-138 -2551)" clip-path="url(#clip-path)">
    <path id="laptop" d="M296.871,304.577a18.625,18.625,0,0,0,26.343,0l13.166-13.166a18.625,18.625,0,0,0,0-26.343L294.8,223.5l41.569-41.58a18.625,18.625,0,0,0,0-26.343L323.2,142.411a18.625,18.625,0,0,0-26.343,0l-67.911,67.911a18.625,18.625,0,0,0,0,26.343Zm111.762-13.154L421.8,304.589a18.625,18.625,0,0,0,26.343,0l67.911-67.911a18.625,18.625,0,0,0,0-26.343l-67.911-67.911a18.625,18.625,0,0,0-26.343,0l-13.166,13.166a18.625,18.625,0,0,0,0,26.343L450.2,223.5l-41.569,41.58a18.625,18.625,0,0,0,0,26.343ZM726.375,484.25H444.136c-.861,23.06-17.123,37.25-38.111,37.25H335.25c-21.756,0-38.437-20.336-38.146-37.25H18.625A18.68,18.68,0,0,0,0,502.875V521.5A74.719,74.719,0,0,0,74.5,596h596A74.719,74.719,0,0,0,745,521.5V502.875A18.68,18.68,0,0,0,726.375,484.25ZM670.5,55.875A56.039,56.039,0,0,0,614.625,0H130.375A56.039,56.039,0,0,0,74.5,55.875V447h596ZM596,372.5H149V74.5H596Z" transform="translate(327.5 2551)" fill="#f53c4b"/>
  </g>
</svg>
