<svg xmlns="http://www.w3.org/2000/svg" width="512.008" height="512.01" viewBox="0 0 512.008 512.01">
  <path id="ruler" d="M109.46,244.04,244.04,109.48,199.92,65.36l-61.68,61.68a7.919,7.919,0,0,1-11.21,0l-11.21-11.21a7.919,7.919,0,0,1,0-11.21L177.5,42.94,143.86,9.29A31.717,31.717,0,0,0,99,9.29L9.29,99a31.726,31.726,0,0,0,0,44.86L109.46,244.04Zm388.47-116.8a48.04,48.04,0,0,0,0-67.93L452.68,14.06a48.055,48.055,0,0,0-67.95,0L338.71,60.07l113.2,113.2,46.02-46.03ZM316.08,82.71l-297,296.96L.32,487.11a21.229,21.229,0,0,0,24.59,24.56l107.45-18.84L429.28,195.9ZM502.71,368.14,469.07,334.5l-61.68,61.68a7.919,7.919,0,0,1-11.21,0l-11.21-11.21a7.937,7.937,0,0,1,0-11.21l61.68-61.68-44.14-44.14L267.93,402.5,368.14,502.7a31.717,31.717,0,0,0,44.86,0L502.71,413a31.717,31.717,0,0,0,0-44.86Z" transform="translate(0.005 0.01)" fill="#f53c4b"/>
</svg>
