<svg xmlns="http://www.w3.org/2000/svg" width="480" height="448" viewBox="0 0 480 448">
  <path id="university" d="M496,128v16a8,8,0,0,1-8,8H464v12a12,12,0,0,1-12,12H60a12,12,0,0,1-12-12V152H24a8,8,0,0,1-8-8V128a8,8,0,0,1,4.941-7.392l232-88a8,8,0,0,1,6.118,0l232,88A8,8,0,0,1,496,128ZM472,432H40a24,24,0,0,0-24,24v16a8,8,0,0,0,8,8H488a8,8,0,0,0,8-8V456A24,24,0,0,0,472,432ZM96,192V384H60a12,12,0,0,0-12,12v20H464V396a12,12,0,0,0-12-12H416V192H352V384H288V192H224V384H160V192Z" transform="translate(-16 -32)" fill="#0c2662"/>
</svg>
